Patient4_TMGait_0pt7_02_left_37_EMG.mot
version=1
nRows=34
nColumns=33
inDegrees=no
endheader
time	1LAddLong	2LGlutMax	3LGlutMed	4LIliopsoas	5LSemiMemb	6LBicFemLong	7LRecFem	8LVastMed	9LVastLat	10LGasMed	11LTibAnt	12lTibPost	13LPeroneusLong	14LSol	15LExtDigLong	16LFlexDigLong	17RAddLong	18RGlutMax	19RGlutMed	20RIliopsoas	21RSemiMemb	22RBicFemLong	23RRecFem	24RVastMed	25RVastLat	26RGasMed	27RTibAnt	28RTibPost	29RPeroneusLong	30RSol	31RExtDigLong	32RFlexDigLong
42.725	0.014343	0.39261	0.17532	-0.039215	-0.31555	-0.54993	-0.23743	0.010681	0.11658	-0.47897	-0.01236	-0.37766	-0.11536	0.3157	0.11383	-0.1294	-0.098877	1.048	0.011597	0.47684	-0.011292	0.007629	0.37918	0.005493	0.006561	-0.021973	-0.24521	0.004425	-0.072937	-0.13641	0.001221	-0.03067
42.726	0.037384	0.28732	0.36057	-0.020905	-0.16769	-0.75546	-0.18631	0.010681	0.13153	-0.12756	-0.023041	-0.11078	-0.06073	0.58487	0.064697	-0.092926	-0.04303	1.017	0.09552	0.59036	0.049286	0.067902	0.39459	-0.000305	0.002747	-0.007935	0.018463	-0.006866	-0.1297	-0.24139	0.000153	-0.029297
42.727	0.040436	0.18372	0.30838	0.003052	0.056152	-0.45654	-0.12421	0.003357	0.17517	0.37613	-0.045776	-0.00946	0.36774	0.50888	-0.049744	0.13443	0.027008	1.0161	0.25452	0.33081	0.022278	-0.063171	0.392	-0.010376	-0.009766	0.001984	0.063477	-0.001526	-0.061798	-0.32166	0.001068	-0.030823
42.728	0.028992	0.11749	0.32272	-0.016632	0.0383	-0.083313	-0.073242	0.006104	0.2562	0.64438	-0.037079	0.087585	0.46692	0.23056	-0.10147	0.089874	0.014191	0.96024	0.30991	-0.029144	-0.051727	0.005798	0.33875	0.00061	0.00885	0.005493	0.26672	-0.002899	0.1471	-0.29175	-0.000458	-0.022736
42.729	0.028381	0.1059	0.13397	-0.021362	0.023956	-0.062408	-0.044556	-0.003662	0.22171	0.56122	-0.023499	-0.001984	0.36499	-0.85648	-0.15991	0.096741	-0.011292	0.98496	0.24612	-0.18723	-0.05127	0.059052	0.29709	-0.053864	-0.038147	0.002136	0.017395	-0.006561	0.17181	-0.11139	-0.007019	-0.025482
42.73	0.032654	-0.020752	-0.040131	-0.008087	-0.000763	0.12558	-0.042267	0.010986	0.14633	0.46356	-0.007782	-0.024872	0.2385	-1.1711	-0.1886	-0.28473	-0.010986	1.0486	0.60989	-0.26596	-0.085144	0.064545	0.28061	-0.082092	-0.031738	0.001373	-0.42023	-0.006866	0.1532	-0.03006	-0.000763	-0.028076
42.731	0.043335	-0.21088	-0.15839	-0.013885	0.066833	0.067902	-0.032806	0.003204	0.088348	-0.077362	0.004883	0.019684	0.12497	-0.12146	-0.16205	0.093079	0.036621	1.0057	0.51163	-0.12619	-0.0914	-0.002899	0.28458	-0.11566	-0.054474	-0.00824	0.19089	-0.004883	-0.086517	0.12085	-0.002136	-0.028687
42.732	0.03891	-0.31754	-0.21164	-0.018921	0.12085	0.28381	-0.032196	-0.003662	0.067596	-0.32593	0.019989	-0.014191	0.014496	-0.019073	-0.11078	0.54764	0.02594	1.0747	0.25909	0.039063	-0.068359	-0.12009	0.22659	-0.10819	-0.023346	-0.023041	0.45914	0.001984	-0.19547	0.17838	-0.002441	-0.021667
42.733	0.036926	-0.42679	-0.25955	-0.024872	0.05188	0.31509	0.022736	0.002594	0.062714	-0.59357	-0.024414	-0.024567	0.037079	0.16373	-0.04303	-0.017853	0.071869	1.0086	0.14801	0.085754	-0.12085	-0.10559	0.20554	-0.12085	-0.024109	-0.026245	0.51926	-0.005493	-0.18402	0.19089	-0.000458	-0.031586
42.734	0.038605	-0.48966	-0.20065	-0.013733	0.031128	0.085449	0.079498	0.00351	-0.07843	-0.5304	0.006104	-0.009003	0.029297	0	-0.01297	0.22415	0.070953	1.0794	0.30502	0.12512	-0.19653	-0.051422	0.18753	-0.14679	-0.024109	-0.016632	0.29007	-0.003967	-0.079651	0.12039	-0.002289	-0.018616
42.735	0.0177	-0.48508	-0.12558	-0.013123	-0.029297	-0.072479	0.12253	0.003967	-0.15381	-0.43518	0.025024	-0.009003	0.023193	-0.495	-0.009003	-0.2095	0.058289	1.0555	0.41214	0.002289	-0.18234	0.003204	0.20859	-0.12619	-0.015869	-0.010376	0.15243	-0.000763	0.03479	0.12604	-0.008545	-0.029755
42.736	0.011139	-0.50491	-0.12421	-0.023499	-0.027008	-0.36926	0.10223	0.010223	-0.1181	-0.40009	0.019226	0.005341	0.005341	-0.2507	0.001068	0.67154	0.098877	1.0881	0.36041	-0.12039	-0.13138	0.045776	0.22934	-0.11398	-0.041046	-0.012817	0.11765	-0.001984	0.03418	0.091705	-0.001831	-0.031281
42.737	-0.007935	-0.35477	-0.071411	-0.022583	-0.095825	-0.23117	0.10834	0.006561	-0.042419	-0.38574	-0.068512	0.019836	0.036621	-0.006409	0.007477	0.015564	0.12726	1.1237	0.16419	-0.10498	-0.11154	0.10788	0.35004	-0.16617	-0.057373	-0.010071	0.075989	-0.003967	-0.036774	0.045929	-0.002747	-0.025635
42.738	-0.003967	-0.093842	0.027161	-0.023956	-0.15167	-0.23575	0.057526	0.010681	0.043793	-0.32349	-0.14435	0.007935	0.043793	0.41672	0.034485	0.055237	0.11276	1.1601	0.12451	0.07309	-0.13611	0.15808	0.31235	-0.20081	-0.03952	-0.011292	0.121	0.000916	-0.10544	0.024414	-0.001831	-0.027771
42.739	0.015259	0.27573	0.063477	0.014191	-0.075836	-0.22964	0.03418	-0.000763	0.11688	-0.23956	-0.18738	-0.019684	0.089111	0.59753	0.085144	-0.14236	0.16312	1.1623	0.43991	0.20416	-0.10117	0.12405	0.33768	-0.159	-0.043182	-0.023651	0.27939	-0.00824	-0.058136	0.039825	-0.002594	-0.023041
42.74	0.03952	0.6282	0.10162	0.028687	0.051727	-0.23315	-0.003815	-0.003815	0.1149	-0.21088	-0.12238	-0.016632	0.13001	0.54352	0.024109	0.522	0.20691	1.1505	0.42847	0.23178	-0.16708	0.066223	0.30777	-0.13779	-0.02243	-0.028229	0.30563	-0.005951	-0.056915	0.020752	-0.004578	-0.014343
42.741	0.041199	0.69961	0.054016	-0.002747	0.055695	-0.21576	-0.023041	-0.002747	0.11963	-0.32394	-0.028076	-0.019073	0.10681	0.36682	-0.002136	0.000763	0.16357	1.198	0.29419	0.22278	-0.17487	0.11505	0.3421	-0.19211	-0.03952	-0.028534	-0.071716	-0.003357	-0.055847	-0.002441	0.000458	-0.021057
42.742	0.043945	0.62744	0.063019	-0.023651	0.060425	-0.16937	-0.063629	-0.015717	0.10788	-0.42618	0.075989	-0.013885	0.09552	0.21912	0.36941	-0.46616	0.1001	1.2405	0.22079	0.19669	-0.15778	0.15686	0.35202	-0.17746	-0.036163	-0.025024	-0.66086	-0.001984	-0.060425	-0.00061	-0.003052	-0.015717
42.743	0.033569	0.56808	0.010071	-0.011597	0.04425	0.017242	-0.1294	-0.008087	0.11932	-0.39551	0.075836	-0.014496	0.12695	0.049744	0.15671	-0.19867	0.041809	1.3518	0.32913	0.15335	-0.16632	0.23285	0.3125	-0.14679	-0.037994	-0.019073	-0.24628	-0.007935	-0.12985	-0.058289	-0.001526	-0.016479
42.744	0.015717	0.44434	0.015411	-0.020447	0.007782	0.00351	-0.18158	-0.00351	0.10239	-0.036926	0.24231	-0.009766	0.1149	-0.12466	0.51346	0.32791	0.005646	1.2325	0.22659	0.069733	-0.13031	0.22049	0.35889	-0.1741	-0.018768	-0.005798	1.2505	-0.002441	-0.095978	-0.121	0.000916	-0.0177
42.745	-0.014801	0.36026	0.041656	-0.017395	-0.095215	-0.048828	-0.18753	0.000305	0.085754	0.025787	0.41565	-0.014648	0.009003	-0.20676	0.1831	-0.70419	-0.025482	1.2431	0.33234	0.070801	-0.10651	0.16266	0.29617	-0.17425	0.002594	-0.009003	0.82779	-0.009003	0.049438	-0.13489	-0.002747	-0.019684
42.746	-0.03067	0.31494	0.050964	-0.019531	-0.24948	-0.045166	-0.20752	0.01236	0.11902	-0.15045	0.12146	-0.025482	-0.002441	-0.21423	-0.25925	0.42938	-0.053558	1.2531	0.3923	0.13519	-0.10284	0.17777	0.31113	-0.12405	-0.007935	-0.009766	0.40131	-0.011444	0.037994	-0.098572	-0.00061	-0.0177
42.747	-0.006409	0.31479	0.030518	-0.003052	-0.23727	-0.20783	-0.30197	0.001984	0.1297	0.27756	0.057831	-0.018768	0.031433	-0.077667	-0.27252	0.47958	-0.043182	1.3927	0.36209	0.052185	-0.083771	0.072327	0.27741	-0.15228	-0.017548	-0.02182	0.5751	-0.012207	-0.02655	-0.15243	0.001831	-0.022583
42.748	0.004578	0.23926	0.053864	-0.009003	-0.12146	-0.27527	-0.40451	0.007629	0.097809	1.0408	-0.005341	-0.026093	0.060883	-0.015717	-0.32135	-0.18524	-0.058289	1.3568	0.23529	-0.084686	-0.085144	0.12695	0.24979	-0.1152	0.002136	0.000305	-0.1532	-0.006561	0.064392	-0.20096	0.000305	-0.016785
42.749	0.023651	0.298	0.033112	0.00473	-0.005798	-0.41748	-0.47897	0.001831	0.12604	0.56244	-0.1506	-0.018311	0.10178	-0.057983	-0.37842	-0.77347	0.015106	1.2445	0.12177	-0.19867	-0.071869	0.21469	0.21759	-0.048523	-0.011139	-0.009308	-0.26169	-0.00412	0.048828	-0.14328	-0.001068	-0.012817
42.75	0.034332	0.28976	0.011139	-0.006866	0.16602	-0.12116	-0.47684	-0.011292	0.24139	-0.80414	-0.20111	-0.011292	0.16174	-0.12207	-0.088196	0.49896	-0.004578	1.2454	0.003967	-0.25833	-0.095215	0.25467	0.19379	-0.095673	-0.012665	-0.016022	0.22766	-0.014191	0.039215	-0.19836	-0.001831	-0.012665
42.751	0.024567	0.26276	-0.014038	-0.00351	0.1355	0.31708	-0.43411	0.001373	0.18433	-1.0396	-0.15167	0.003662	0.20218	-0.41824	-0.080719	-0.033875	-0.099792	1.2503	0.077057	-0.31738	-0.14648	0.21606	0.15045	-0.044556	-0.005646	0.000153	0.023346	-0.007172	0.065765	-0.23804	0.00061	-0.015869
42.752	0.015106	0.31525	0.056	0.006866	0.097046	0.51361	-0.39383	0.010376	0.072479	-0.76904	-0.076141	-0.112	0.26443	-0.63477	-0.027008	0.061035	-0.16907	1.2202	0.14526	-0.23743	-0.21866	0.2478	0.22858	0.029755	0.006256	-0.007324	0.15839	-0.016785	-0.079346	-0.093689	-0.003052	-0.010986
42.753	0.007629	0.22125	0.075989	0.009155	0.018311	0.095825	-0.37506	0.024414	-0.023193	0.051575	-0.055084	0.25818	0.28442	-0.73303	-0.080109	0.34149	-0.21606	1.1809	0.20477	-0.20569	-0.2153	0.41351	0.28595	0.045471	0.001831	-0.015106	-0.12665	-0.00351	-0.098724	-0.028076	0.001221	-0.001678
42.754	0.005188	0.1709	0.068512	0.01297	0.031433	-0.23972	-0.43503	0.004883	0.050507	0.38284	-0.032959	-0.03952	0.23468	-0.38895	-0.040588	0.060577	-0.1828	1.0919	0.23987	-0.065002	-0.19577	0.28595	0.32577	0.031433	-0.025635	-0.014801	-0.027161	-0.006714	-0.041504	0.13504	-0.006256	-0.009003
42.755	-0.01358	0.14099	0.012665	0.012207	0.063019	-0.21759	-0.45715	0.012512	0.006561	0.23529	-0.013123	-0.24948	0.28473	0.29648	0.030823	-0.36606	-0.13565	1.0577	0.14404	-0.039063	-0.20065	0.12665	0.35065	0.025635	-0.045776	-0.02243	0.04364	-0.006561	0.06897	0.13596	-0.003815	-0.011444
42.756	-0.010681	0.13611	-0.060577	-0.003052	0.029755	0.015106	-0.43335	0.013275	-0.003357	0.77667	-0.013885	0.33279	0.28229	0.59479	0.02594	-0.29251	-0.08606	0.98709	0.18982	-0.05661	-0.17059	0.080109	0.40726	0.078278	-0.035858	-0.014496	-0.56778	-0.00885	0.1445	0.028076	-0.001068	0.001678
42.757	-0.016479	-0.014648	-0.016785	-0.007019	-0.012817	0.24658	-0.43823	0.00351	0.033569	0.76782	-0.014954	0.25223	0.03952	0.77606	0.00946	0.33768	-0.03479	0.87296	0.20172	0.03952	-0.13962	0.093536	0.48325	0.1091	-0.04303	-0.008392	-0.84671	-0.007019	0.14374	-0.13977	-0.002289	0.011139
42.758	-0.007477	-0.19714	-0.018768	-0.001831	-0.023804	0.47791	-0.41855	-0.010986	0.054626	-0.036011	-0.017395	0.0737	-0.018616	0.1506	0.011597	0.26199	0.01358	0.70801	0.37155	0.1503	-0.085754	0.066528	0.4628	0.13718	-0.041809	-0.014343	-0.31082	-0.005798	-0.030365	-0.092468	-0.001984	0.014801
